<?xml version="1.0" standalone="no"?><!DOCTYPE svg PUBLIC "-//W3C//DTD SVG 1.1//EN" "http://www.w3.org/Graphics/SVG/1.1/DTD/svg11.dtd"><svg t="1747813076791" class="icon" viewBox="0 0 1024 1024" version="1.1" xmlns="http://www.w3.org/2000/svg" p-id="20535" xmlns:xlink="http://www.w3.org/1999/xlink" width="20" height="20"><path d="M704 569.6a38.4 38.4 0 0 1 38.4 38.4v89.536l89.6 0.064a38.4 38.4 0 0 1 0 76.8l-89.6-0.064V864a38.4 38.4 0 0 1-76.8 0v-89.664L576 774.4a38.4 38.4 0 0 1 0-76.8l89.6-0.064V608a38.4 38.4 0 0 1 38.4-38.4zM768 128a128 128 0 0 1 128 128v320a38.4 38.4 0 0 1-38.4 38.4l-6.208-0.512A38.4 38.4 0 0 1 819.2 576V428.8H204.8v332.8a57.6 57.6 0 0 0 57.6 57.6h204.8a38.4 38.4 0 0 1 0 76.8H262.4A134.4 134.4 0 0 1 128 761.6V256a128 128 0 0 1 128-128h512z m-12.8 76.8H268.8a64 64 0 0 0-64 64l-0.064 83.2h614.4l0.064-83.2a64 64 0 0 0-64-64z m-460.8 38.4a38.4 38.4 0 1 1 0 76.8 38.4 38.4 0 0 1 0-76.8z m128 0a38.4 38.4 0 1 1 0 76.8 38.4 38.4 0 0 1 0-76.8z m128 0a38.4 38.4 0 1 1 0 76.8 38.4 38.4 0 0 1 0-76.8z" p-id="20536"></path></svg>